<svg width="48" height="50" viewBox="0 0 48 50" fill="none" xmlns="http://www.w3.org/2000/svg">
<path d="M5.40537 28.6002L32.7171 28.5997L19.2262 42.8197L25.1606 49.0748L45.5823 27.5495C47.7337 25.2818 46.209 21.4083 43.1663 21.409L5.40326 21.4033C4.49802 21.4033 3.62995 21.7823 2.98993 22.4569C2.34992 23.1315 1.99037 24.0465 1.99034 25.0007C1.99034 25.4733 2.07868 25.9414 2.25031 26.3781C2.42194 26.8148 2.6735 27.2116 2.99063 27.5459C3.30776 27.8802 3.68424 28.1453 4.09856 28.3262C4.51289 28.5071 4.95694 28.6002 5.40537 28.6002Z" fill="white"/>
<path d="M5.41038 21.3998L32.7149 21.4004L19.2276 7.17663L25.1604 0.919848L45.5767 22.4509C47.7275 24.7191 46.2032 28.5937 43.1613 28.5929L5.40827 28.5987C4.50327 28.5987 3.63543 28.2196 2.99559 27.5448C2.35575 26.87 1.99629 25.9548 1.99626 25.0004C1.99626 24.5276 2.08457 24.0594 2.25616 23.6226C2.42774 23.1857 2.67924 22.7888 2.99629 22.4545C3.31333 22.1201 3.68971 21.8549 4.10392 21.6739C4.51814 21.493 4.96208 21.3998 5.41038 21.3998Z" fill="#EE6500"/>
</svg>
